HIERARCHY
ROOT Hips
{
	OFFSET 0.000000 71.427986 0.000000
	CHANNELS 6 Xposition Yposition Zposition Xrotation Yrotation Zrotation
	JOINT Pelvis
	{
		OFFSET 0.000000 0.000000 0.000000
		CHANNELS 3 Xrotation Yrotation Zrotation
		JOINT LeftUpLeg
		{
			OFFSET 6.797100 -2.508499 -1.318700
			CHANNELS 3 Xrotation Yrotation Zrotation
			JOINT LeftLeg
			{
				OFFSET 0.069008 -29.241863 0.690200
				CHANNELS 3 Xrotation Yrotation Zrotation
				JOINT LeftFoot
				{
					OFFSET -0.069008 -29.568123 -0.266800
					CHANNELS 3 Xrotation Yrotation Zrotation
					JOINT LeftToeBase
					{
						OFFSET 3.145500 -8.631000 16.059900
						CHANNELS 3 Xrotation Yrotation Zrotation
						End Site
						{
							OFFSET 0.000000 18.501587 0.000000
						}
					}
				}
			}
			JOINT Left_ShortSleeve
			{
				OFFSET 0.265923 -10.480953 1.153800
				CHANNELS 3 Xrotation Yrotation Zrotation
				End Site
				{
					OFFSET 1.725763 19.823879 0.000000
				}
			}
		}
		JOINT RightUpLeg
		{
			OFFSET -6.797100 -2.508499 -1.318700
			CHANNELS 3 Xrotation Yrotation Zrotation
			JOINT RightLeg
			{
				OFFSET -0.082453 -29.241932 0.688000
				CHANNELS 3 Xrotation Yrotation Zrotation
				JOINT RightFoot
				{
					OFFSET 0.082453 -29.568058 -0.264600
					CHANNELS 3 Xrotation Yrotation Zrotation
					JOINT RightToeBase
					{
						OFFSET -3.115300 -8.682800 16.113400
						CHANNELS 3 Xrotation Yrotation Zrotation
						End Site
						{
							OFFSET 0.000000 18.567114 0.000000
						}
					}
				}
			}
			JOINT Right_ShortSleeve
			{
				OFFSET -0.265923 -10.480953 1.153800
				CHANNELS 3 Xrotation Yrotation Zrotation
				End Site
				{
					OFFSET -1.725766 19.823910 0.000000
				}
			}
		}
	}
	JOINT Spine
	{
		OFFSET 0.000000 13.368103 0.470500
		CHANNELS 3 Xrotation Yrotation Zrotation
		JOINT Spine1
		{
			OFFSET 0.147000 13.837402 0.538800
			CHANNELS 3 Xrotation Yrotation Zrotation
			JOINT Spine2
			{
				OFFSET 0.168000 16.242897 -1.435500
				CHANNELS 3 Xrotation Yrotation Zrotation
				JOINT Neck
				{
					OFFSET 0.217200 18.631500 -1.679100
					CHANNELS 3 Xrotation Yrotation Zrotation
					JOINT Head
					{
						OFFSET 0.000000 6.599396 1.385900
						CHANNELS 3 Xrotation Yrotation Zrotation
						JOINT Hat
						{
							OFFSET -0.532200 27.220596 -10.096100
							CHANNELS 3 Xrotation Yrotation Zrotation
							End Site
							{
								OFFSET 0.000000 22.029861 0.000000
							}
						}
						JOINT HairD
						{
							OFFSET -10.777400 17.437393 -1.325900
							CHANNELS 3 Xrotation Yrotation Zrotation
							JOINT HairD1
							{
								OFFSET -3.290299 -11.051193 1.062200
								CHANNELS 3 Xrotation Yrotation Zrotation
								End Site
								{
									OFFSET 0.000000 11.579437 0.000000
								}
							}
						}
						JOINT HairB
						{
							OFFSET -10.777400 17.437393 1.467900
							CHANNELS 3 Xrotation Yrotation Zrotation
							JOINT HairB1
							{
								OFFSET -1.561200 -12.956299 3.590200
								CHANNELS 3 Xrotation Yrotation Zrotation
								End Site
								{
									OFFSET 0.000000 13.534866 0.000000
								}
							}
						}
						JOINT HairA
						{
							OFFSET 9.713100 17.437393 1.467900
							CHANNELS 3 Xrotation Yrotation Zrotation
							JOINT HairA1
							{
								OFFSET 1.561200 -12.956299 3.590200
								CHANNELS 3 Xrotation Yrotation Zrotation
								End Site
								{
									OFFSET 0.000000 13.534866 0.000000
								}
							}
						}
						JOINT HairC
						{
							OFFSET 9.713100 17.437393 -1.325900
							CHANNELS 3 Xrotation Yrotation Zrotation
							JOINT HairC1
							{
								OFFSET 3.290300 -11.051193 1.062200
								CHANNELS 3 Xrotation Yrotation Zrotation
								End Site
								{
									OFFSET 0.000000 11.579437 0.000000
								}
							}
						}
					}
				}
				JOINT LeftShoulder
				{
					OFFSET 5.101800 15.108002 -2.763700
					CHANNELS 3 Xrotation Yrotation Zrotation
					JOINT LeftArm
					{
						OFFSET 9.825497 2.506317 -1.597400
						CHANNELS 3 Xrotation Yrotation Zrotation
						JOINT LeftForeArm
						{
							OFFSET 21.966244 0.000000 0.000000
							CHANNELS 3 Xrotation Yrotation Zrotation
							JOINT LeftHand
							{
								OFFSET 33.879036 0.000000 0.000000
								CHANNELS 3 Xrotation Yrotation Zrotation
								JOINT LeftHandThumb1
								{
									OFFSET 6.715286 -2.359680 3.363841
									CHANNELS 3 Xrotation Yrotation Zrotation
									JOINT LeftHandThumb2
									{
										OFFSET 2.507072 -1.447464 1.447461
										CHANNELS 3 Xrotation Yrotation Zrotation
										JOINT LeftHandThumb3
										{
											OFFSET 2.898338 -1.673355 1.673357
											CHANNELS 3 Xrotation Yrotation Zrotation
											End Site
											{
												OFFSET -0.295959 3.727692 -0.131651
											}
										}
									}
								}
								JOINT LeftHandIndex1
								{
									OFFSET 14.190811 -0.254547 3.840278
									CHANNELS 3 Xrotation Yrotation Zrotation
									JOINT LeftHandIndex2
									{
										OFFSET 3.551727 0.000000 -0.000000
										CHANNELS 3 Xrotation Yrotation Zrotation
										JOINT LeftHandIndex3
										{
											OFFSET 2.894196 0.000000 0.000000
											CHANNELS 3 Xrotation Yrotation Zrotation
											End Site
											{
												OFFSET -1.000603 2.690872 0.366626
											}
										}
									}
								}
								JOINT LeftHandMiddle1
								{
									OFFSET 13.776489 0.000000 0.000000
									CHANNELS 3 Xrotation Yrotation Zrotation
									JOINT LeftHandMiddle2
									{
										OFFSET 3.438232 0.000000 0.000000
										CHANNELS 3 Xrotation Yrotation Zrotation
										JOINT LeftHandMiddle3
										{
											OFFSET 3.691551 0.000000 0.000000
											CHANNELS 3 Xrotation Yrotation Zrotation
											End Site
											{
												OFFSET -1.082298 3.499527 0.457670
											}
										}
									}
								}
								JOINT LeftHandRing1
								{
									OFFSET 13.966164 -0.268127 -3.067488
									CHANNELS 3 Xrotation Yrotation Zrotation
									JOINT LeftHandRing2
									{
										OFFSET 3.162567 0.000000 0.000000
										CHANNELS 3 Xrotation Yrotation Zrotation
										JOINT LeftHandRing3
										{
											OFFSET 3.324348 0.000000 0.000000
											CHANNELS 3 Xrotation Yrotation Zrotation
											End Site
											{
												OFFSET -0.861900 3.184998 0.405154
											}
										}
									}
								}
								JOINT LeftHandPinky1
								{
									OFFSET 13.131393 -0.168503 -5.746925
									CHANNELS 3 Xrotation Yrotation Zrotation
									JOINT LeftHandPinky2
									{
										OFFSET 2.849182 0.000000 0.000000
										CHANNELS 3 Xrotation Yrotation Zrotation
										JOINT LeftHandPinky3
										{
											OFFSET 2.805038 0.000000 0.000000
											CHANNELS 3 Xrotation Yrotation Zrotation
											End Site
											{
												OFFSET -0.882500 2.642609 0.325652
											}
										}
									}
								}
							}
							JOINT Left_Sleeve
							{
								OFFSET 6.592125 -0.646545 0.805568
								CHANNELS 3 Xrotation Yrotation Zrotation
								End Site
								{
									OFFSET -0.000179 20.275787 -0.000000
								}
							}
						}
					}
				}
				JOINT RightShoulder
				{
					OFFSET -5.731700 15.108002 -2.763700
					CHANNELS 3 Xrotation Yrotation Zrotation
					JOINT RightArm
					{
						OFFSET -9.825497 2.506317 -1.597400
						CHANNELS 3 Xrotation Yrotation Zrotation
						JOINT RightForeArm
						{
							OFFSET -21.966242 0.000000 0.000000
							CHANNELS 3 Xrotation Yrotation Zrotation
							JOINT RightHand
							{
								OFFSET -33.879032 0.000000 0.000000
								CHANNELS 3 Xrotation Yrotation Zrotation
								JOINT RightHandThumb1
								{
									OFFSET -6.715286 -2.359680 3.363841
									CHANNELS 3 Xrotation Yrotation Zrotation
									JOINT RightHandThumb2
									{
										OFFSET -2.507072 -1.447464 1.447461
										CHANNELS 3 Xrotation Yrotation Zrotation
										JOINT RightHandThumb3
										{
											OFFSET -2.898338 -1.673355 1.673357
											CHANNELS 3 Xrotation Yrotation Zrotation
											End Site
											{
												OFFSET 0.295959 3.727692 -0.131651
											}
										}
									}
								}
								JOINT RightHandIndex1
								{
									OFFSET -14.190811 -0.254547 3.840278
									CHANNELS 3 Xrotation Yrotation Zrotation
									JOINT RightHandIndex2
									{
										OFFSET -3.551727 0.000000 -0.000000
										CHANNELS 3 Xrotation Yrotation Zrotation
										JOINT RightHandIndex3
										{
											OFFSET -2.894196 0.000000 0.000000
											CHANNELS 3 Xrotation Yrotation Zrotation
											End Site
											{
												OFFSET 1.000603 2.690872 0.366626
											}
										}
									}
								}
								JOINT RightHandMiddle1
								{
									OFFSET -13.776489 0.000000 0.000000
									CHANNELS 3 Xrotation Yrotation Zrotation
									JOINT RightHandMiddle2
									{
										OFFSET -3.438232 0.000000 0.000000
										CHANNELS 3 Xrotation Yrotation Zrotation
										JOINT RightHandMiddle3
										{
											OFFSET -3.691551 0.000000 0.000000
											CHANNELS 3 Xrotation Yrotation Zrotation
											End Site
											{
												OFFSET 1.082298 3.499527 0.457670
											}
										}
									}
								}
								JOINT RightHandRing1
								{
									OFFSET -13.966164 -0.268127 -3.067488
									CHANNELS 3 Xrotation Yrotation Zrotation
									JOINT RightHandRing2
									{
										OFFSET -3.162567 0.000000 0.000000
										CHANNELS 3 Xrotation Yrotation Zrotation
										JOINT RightHandRing3
										{
											OFFSET -3.324348 0.000000 0.000000
											CHANNELS 3 Xrotation Yrotation Zrotation
											End Site
											{
												OFFSET 0.861900 3.184998 0.405154
											}
										}
									}
								}
								JOINT RightHandPinky1
								{
									OFFSET -13.131393 -0.168503 -5.746925
									CHANNELS 3 Xrotation Yrotation Zrotation
									JOINT RightHandPinky2
									{
										OFFSET -2.849182 0.000000 0.000000
										CHANNELS 3 Xrotation Yrotation Zrotation
										JOINT RightHandPinky3
										{
											OFFSET -2.805038 0.000000 0.000000
											CHANNELS 3 Xrotation Yrotation Zrotation
											End Site
											{
												OFFSET 0.882500 2.642609 0.325652
											}
										}
									}
								}
							}
							JOINT Right_Sleeve
							{
								OFFSET -6.592125 -0.646545 0.805568
								CHANNELS 3 Xrotation Yrotation Zrotation
								End Site
								{
									OFFSET 0.000179 20.275787 -0.000000
								}
							}
						}
					}
				}
				JOINT Bind_Right_JacketString
				{
					OFFSET -3.534800 11.969597 7.200700
					CHANNELS 3 Xrotation Yrotation Zrotation
					JOINT Bind_Right_JacketString1
					{
						OFFSET -0.319900 -6.102600 2.794100
						CHANNELS 3 Xrotation Yrotation Zrotation
						End Site
						{
							OFFSET 0.000000 6.719452 0.000000
						}
					}
				}
				JOINT Bind_Left_JacketString
				{
					OFFSET 2.904800 11.969597 7.200700
					CHANNELS 3 Xrotation Yrotation Zrotation
					JOINT Bind_Left_JacketString1
					{
						OFFSET 0.364800 -5.904503 3.186800
						CHANNELS 3 Xrotation Yrotation Zrotation
						End Site
						{
							OFFSET 0.000000 6.719513 0.000000
						}
					}
				}
				JOINT HairE
				{
					OFFSET 5.915200 17.612701 -11.592200
					CHANNELS 3 Xrotation Yrotation Zrotation
					JOINT HairE1
					{
						OFFSET 0.289200 -7.171898 -1.284500
						CHANNELS 3 Xrotation Yrotation Zrotation
						End Site
						{
							OFFSET 0.000000 7.291756 0.000000
						}
					}
				}
				JOINT HairF
				{
					OFFSET -0.864800 17.612701 -11.592200
					CHANNELS 3 Xrotation Yrotation Zrotation
					JOINT HairF1
					{
						OFFSET 0.000000 -14.087097 -2.127501
						CHANNELS 3 Xrotation Yrotation Zrotation
						End Site
						{
							OFFSET 0.000000 14.246841 0.000000
						}
					}
				}
				JOINT HairG
				{
					OFFSET -8.087700 17.612701 -11.592200
					CHANNELS 3 Xrotation Yrotation Zrotation
					JOINT HairG1
					{
						OFFSET -0.293600 -6.081398 -0.910100
						CHANNELS 3 Xrotation Yrotation Zrotation
						End Site
						{
							OFFSET 0.000000 6.156120 0.000000
						}
					}
				}
			}
		}
	}
	JOINT Pouch
	{
		OFFSET 0.000000 4.394501 10.847300
		CHANNELS 3 Xrotation Yrotation Zrotation
		End Site
		{
			OFFSET 0.000000 21.880577 0.000000
		}
	}
	JOINT Bag
	{
		OFFSET -13.229000 4.813004 -0.593300
		CHANNELS 3 Xrotation Yrotation Zrotation
		End Site
		{
			OFFSET 0.000000 21.880577 0.000000
		}
	}
	JOINT OccupyGuyFacialAnim_Joint
	{
		OFFSET 1.000000 -70.206398 -1.655000
		CHANNELS 3 Xrotation Yrotation Zrotation
		End Site
		{
			OFFSET 0.000000 21.880577 0.000000
		}
	}
}
MOTION
Frames: 4
Frame Time: 0.033333
-91.944572 70.341789 137.992462 -171.627778 -67.277186 -160.290005 0.000000 0.000000 0.000001 -15.615112 13.007258 -4.099112 43.312811 -10.292481 -1.327986 -2.346252 -3.760262 2.898407 0.000001 0.000002 -0.000000 0.000003 0.000001 -0.000000 -31.252514 12.536423 -1.885846 67.155765 -4.125409 -0.067401 3.806023 1.717097 -7.578043 0.000000 0.000000 -0.000000 -0.000001 0.000001 -0.000001 5.710621 1.076842 -9.648770 -0.980612 1.976998 1.040632 -1.131905 1.843558 0.896286 -4.877874 29.374598 4.331483 -2.516098 32.312925 2.537314 -0.000000 -0.000003 -0.000001 -0.000000 -0.000003 -0.000001 -0.000000 -0.000003 -0.000001 -0.000000 -0.000003 -0.000001 -0.000000 0.000001 -0.000000 -0.000000 -0.000003 -0.000001 -0.000000 0.000001 -0.000000 -0.000000 -0.000003 -0.000001 -0.000000 -0.000003 -0.000001 1.054783 1.313082 -2.809546 -7.936783 14.742540 -76.112889 2.941551 -3.615278 1.110479 -0.107941 2.214288 0.430515 12.758416 -0.662509 21.677528 -7.744001 22.055864 -6.902529 0.000001 -0.000000 -0.000000 1.913895 1.214588 -10.837988 -2.124240 2.411879 -15.587938 0.000002 0.000001 -0.000000 -2.508148 4.013616 -14.512502 0.259679 5.004560 -28.744735 0.000000 0.000000 0.000001 -4.866379 9.893171 -10.065665 3.983135 4.015294 -38.221790 -0.000001 0.000000 0.000001 -6.254050 10.944963 -16.529859 10.823394 2.769172 -38.718601 -0.000000 -0.000001 0.000003 0.000000 -0.000001 -0.000000 0.361622 5.035744 6.632040 -0.463874 1.186344 71.127664 19.813100 5.016911 -1.999588 0.063383 2.048270 -2.146063 12.583768 0.733387 -21.978459 -7.225981 -22.870822 6.886326 0.000001 -0.000000 0.000006 1.931770 -1.399502 11.304760 -2.124163 -2.411617 16.396077 -0.000001 -0.000000 0.000002 -2.482415 -4.153110 15.315395 0.259132 -5.007343 29.604765 0.000000 -0.000001 0.000001 -4.872429 -9.892125 11.066141 3.983267 -4.016295 38.850236 -0.000000 0.000000 -0.000002 -6.259299 -10.942416 17.800088 10.811552 -2.749768 39.250666 -0.000000 0.000000 0.000004 -0.000001 -0.000000 -0.000001 0.000000 0.000002 -0.000000 0.000000 0.000001 0.000000 0.000000 0.000002 -0.000000 0.000000 0.000002 -0.000000 0.000000 0.000002 -0.000000 0.000000 0.000001 -0.000000 0.000000 0.000002 -0.000000 0.000000 0.000002 -0.000000 0.000000 0.000002 -0.000000 0.000000 0.000001 -0.000000 0.000000 0.000000 0.000001 0.000000 0.000000 0.000001 0.000000 0.000000 0.000001 
-93.463829 70.673630 137.533936 -173.925713 -65.976294 -163.808140 0.000000 -0.000000 -0.000000 -14.174276 13.016157 -3.120084 42.337337 -9.246162 -1.245772 -3.587134 -3.509933 2.497035 0.000001 0.000001 -0.000000 -0.000001 -0.000001 -0.000000 -34.073683 7.995759 -0.785620 58.711889 -3.010175 -0.057582 8.831867 2.473602 -6.636909 0.000000 0.000000 0.000000 -0.000002 0.000000 -0.000000 5.716371 0.741869 -8.176285 -1.286988 1.491745 1.056119 -1.390965 1.373703 0.939625 -4.527849 28.988088 4.402656 -2.470271 32.080961 2.147035 -0.000000 -0.000001 -0.000000 -0.000000 -0.000001 -0.000000 -0.000000 -0.000001 0.000000 -0.000000 -0.000001 0.000000 0.000001 -0.000001 0.000000 -0.000000 -0.000001 0.000000 0.000001 -0.000001 0.000000 -0.000000 -0.000001 -0.000000 -0.000000 -0.000001 -0.000000 1.011522 0.749738 -2.107304 -9.549216 14.901936 -76.114084 1.205700 -5.841100 1.226185 -0.093860 1.679313 0.615905 13.086680 -0.530476 21.109451 -8.721682 20.528764 -6.960997 -0.000000 -0.000000 -0.000001 1.887669 0.866057 -9.959047 -2.123526 2.413473 -14.066364 0.000002 0.000001 0.000002 -2.547344 3.751419 -13.000998 0.260766 5.006181 -27.125543 -0.000001 0.000001 -0.000001 -4.866593 9.903355 -8.180726 3.982519 4.014859 -37.038548 -0.000001 0.000000 0.000003 -6.253424 10.964668 -14.138333 10.846970 2.807060 -37.716878 -0.000000 -0.000000 0.000001 0.000000 -0.000001 -0.000001 0.392668 5.644605 5.801079 0.566659 -2.283464 71.882448 18.125464 3.871260 -3.064672 0.005819 2.412009 -1.600257 12.254147 0.868245 -22.543576 -6.251928 -24.411448 6.884180 0.000000 -0.000000 0.000003 1.974579 -1.746997 12.183592 -2.125054 -2.412434 17.917692 -0.000000 0.000000 -0.000001 -2.424585 -4.415746 16.827392 0.258529 -5.014145 31.224176 0.000001 0.000000 0.000001 -4.881667 -9.898884 12.951205 3.984845 -4.019348 40.033525 -0.000001 0.000000 -0.000002 -6.277343 -10.953301 20.192027 10.791145 -2.714369 40.252453 -0.000000 0.000001 -0.000001 0.000000 0.000000 0.000001 -0.000000 0.000001 -0.000000 -0.000000 0.000001 -0.000000 -0.000000 0.000001 0.000000 -0.000000 0.000001 0.000000 -0.000000 0.000001 -0.000000 -0.000000 0.000001 -0.000000 -0.000000 0.000001 0.000000 -0.000000 0.000001 0.000000 -0.000000 0.000001 -0.000000 -0.000000 0.000001 -0.000000 0.000000 -0.000000 -0.000000 0.000000 -0.000000 -0.000000 0.000000 -0.000000 -0.000000 
-94.970062 70.954330 137.010239 -175.804575 -65.374623 -166.766145 0.000001 0.000002 -0.000000 -12.881913 12.695963 -2.229085 41.301628 -9.825636 -1.322752 -4.538708 -2.012750 2.337117 0.000001 -0.000000 0.000000 0.000002 0.000000 -0.000000 -34.077241 1.763930 0.337007 47.911294 -0.992809 -0.003667 12.651957 1.650517 -9.720004 -0.000001 0.000001 -0.000000 -0.000001 -0.000003 -0.000000 6.197935 0.166585 -6.903227 -1.767754 0.856286 1.080593 -1.827939 0.754413 0.999210 -5.310021 28.332448 4.738149 -1.849150 31.570576 1.823992 -0.000000 0.000002 0.000000 -0.000000 0.000002 0.000000 -0.000000 0.000002 0.000000 -0.000000 0.000002 0.000000 -0.000001 -0.000002 -0.000000 -0.000000 0.000002 0.000000 -0.000001 -0.000002 -0.000000 -0.000000 0.000002 0.000000 -0.000000 0.000002 0.000000 0.987663 0.678546 -1.776465 -10.887179 14.701210 -75.740630 0.205360 -8.862346 1.430310 -0.104441 1.347168 -0.915086 13.398981 -0.406193 20.565631 -9.658635 19.080745 -7.050626 0.000000 -0.000000 -0.000004 1.873298 0.533046 -9.120270 -2.125272 2.416568 -12.614556 -0.000001 0.000002 0.000000 -2.573500 3.502030 -11.559006 0.261825 5.011537 -25.580713 -0.000000 -0.000000 0.000001 -4.872739 9.922907 -6.382342 3.982601 4.016108 -35.909545 -0.000000 0.000001 0.000000 -6.265350 11.000943 -11.856661 10.871300 2.844814 -36.761133 -0.000001 -0.000001 -0.000001 -0.000000 0.000000 0.000001 0.407796 4.869677 5.387589 1.620927 -4.162744 72.055094 16.332642 4.008272 -3.657524 0.000272 2.775782 -1.594152 11.938811 0.998639 -23.081052 -5.322721 -25.888712 6.917126 0.000000 -0.000001 0.000002 2.025746 -2.077542 13.022209 -2.126027 -2.414749 19.369622 -0.000000 -0.000001 0.000002 -2.358026 -4.666020 18.270456 0.258388 -5.022085 32.769468 0.000001 0.000000 -0.000001 -4.892253 -9.916134 14.750454 3.987146 -4.023776 41.162531 -0.000000 -0.000000 -0.000000 -6.303209 -10.983351 22.474664 10.773667 -2.682007 41.208242 0.000001 0.000001 0.000001 -0.000000 0.000000 -0.000001 -0.000000 0.000000 -0.000000 0.000000 -0.000002 0.000000 -0.000000 0.000000 0.000000 -0.000000 0.000000 0.000000 -0.000000 0.000000 -0.000000 0.000000 -0.000002 -0.000000 -0.000000 0.000000 0.000000 -0.000000 0.000000 0.000000 -0.000000 0.000000 -0.000000 0.000000 -0.000002 -0.000000 0.000001 0.000002 -0.000000 0.000001 0.000002 -0.000000 0.000001 0.000002 -0.000000 
-96.492363 71.071663 136.359314 -176.955476 -65.225049 -168.788386 -0.000000 -0.000002 0.000000 -11.340362 13.564284 -0.936429 40.416309 -10.960383 -1.441663 -5.672777 -2.078775 2.689259 0.000002 0.000001 0.000001 -0.000001 -0.000001 -0.000000 -32.002346 -1.526821 2.247126 34.917208 0.833009 0.080691 18.772382 0.554752 -11.813837 -0.000000 -0.000000 0.000001 -0.000002 0.000003 -0.000001 7.185891 -0.492598 -6.327759 -2.269195 0.193076 1.288652 -2.297952 0.125036 1.249357 -7.269212 27.231508 5.265065 -0.692123 30.531987 1.930387 0.000001 0.000002 0.000000 0.000001 0.000002 0.000000 0.000001 0.000002 0.000001 0.000001 0.000002 -0.000000 0.000000 0.000000 -0.000000 0.000001 0.000002 -0.000000 0.000000 0.000000 -0.000000 0.000001 0.000002 0.000000 0.000001 0.000002 0.000000 0.955813 1.028691 -1.409153 -12.186841 12.683231 -75.219316 -1.691253 -11.267506 0.635335 -0.096251 1.121307 -0.522831 13.686093 -0.293156 20.062894 -10.527041 17.754544 -7.162268 0.000001 -0.000000 0.000002 1.868949 0.225982 -8.346906 -2.129726 2.420643 -11.276282 -0.000000 0.000001 -0.000000 -2.586456 3.273205 -10.230027 0.262608 5.019746 -24.156935 -0.000000 -0.000001 -0.000001 -4.884121 9.949178 -4.724760 3.983258 4.018757 -34.868966 -0.000002 -0.000001 -0.000002 -6.288384 11.048650 -9.753599 10.895317 2.881086 -35.880217 -0.000003 0.000000 0.000003 0.000000 -0.000001 0.000001 0.357665 3.083189 5.607680 2.530636 -4.803182 71.377253 15.483926 5.050142 -3.919443 -0.013935 2.842661 -1.466956 11.647418 1.120295 -23.574856 -4.464958 -27.256158 6.978296 0.000001 0.000001 0.000000 2.081775 -2.381169 13.795295 -2.127003 -2.418364 20.707919 -0.000001 0.000000 -0.000001 -2.286771 -4.896153 19.601007 0.258778 -5.030524 34.194058 -0.000000 0.000000 -0.000001 -4.903212 -9.943207 16.409296 3.990024 -4.029057 42.203251 -0.000001 -0.000001 0.000001 -6.333162 -11.028630 24.579081 10.759275 -2.653346 42.089261 -0.000000 0.000001 0.000001 -0.000000 0.000000 -0.000001 -0.000000 -0.000000 0.000000 0.000000 0.000002 0.000000 -0.000000 -0.000000 0.000000 -0.000000 -0.000000 0.000000 -0.000000 -0.000000 0.000000 0.000000 0.000002 0.000000 -0.000000 -0.000000 0.000000 -0.000000 -0.000000 0.000000 -0.000000 -0.000000 0.000000 0.000000 0.000002 0.000000 -0.000000 -0.000002 0.000000 -0.000000 -0.000002 0.000000 -0.000000 -0.000002 0.000000 
